<svg xmlns="http://www.w3.org/2000/svg" xmlns:xlink="http://www.w3.org/1999/xlink" viewBox="0 0 298.33 221.4"><defs><style>.cls-1{fill:#dfe8ef;}.cls-2{fill:url(#未命名的渐变_400);}.cls-3{fill:url(#未命名的渐变_400-2);}.cls-4{fill:url(#未命名的渐变_400-3);}.cls-5{fill:url(#未命名的渐变_400-4);}.cls-16,.cls-17,.cls-6{fill:none;stroke-linecap:round;stroke-linejoin:round;}.cls-6{stroke:#dfe8ef;stroke-width:2px;stroke-dasharray:5 6;}.cls-7{fill:url(#未命名的渐变_292);}.cls-8{fill:url(#未命名的渐变_292-2);}.cls-9{fill:url(#未命名的渐变_292-3);}.cls-10{fill:url(#未命名的渐变_234);}.cls-11{fill:url(#未命名的渐变_262);}.cls-12{fill:url(#未命名的渐变_646);}.cls-13{fill:url(#未命名的渐变_646-2);}.cls-14{fill:url(#未命名的渐变_646-3);}.cls-15{fill:url(#未命名的渐变_312);}.cls-16,.cls-17{stroke-width:5px;}.cls-16{stroke:url(#未命名的渐变_234-2);}.cls-17{stroke:url(#未命名的渐变_234-3);}</style><linearGradient id="未命名的渐变_400" x1="219.76" y1="185.07" x2="235.47" y2="185.07" gradientUnits="userSpaceOnUse"><stop offset="0" stop-color="#bae7ff"/><stop offset="1" stop-color="#85daff"/></linearGradient><linearGradient id="未命名的渐变_400-2" x1="219.76" y1="193.45" x2="254.89" y2="193.45" xlink:href="#未命名的渐变_400"/><linearGradient id="未命名的渐变_400-3" x1="-2204.59" y1="47.86" x2="-2188.88" y2="47.86" gradientTransform="matrix(1, 0, 0, -1, 2223.93, 95.72)" xlink:href="#未命名的渐变_400"/><linearGradient id="未命名的渐变_400-4" x1="-2204.59" y1="56.24" x2="-2169.46" y2="56.24" gradientTransform="matrix(1, 0, 0, -1, 2204.59, 112.48)" xlink:href="#未命名的渐变_400"/><linearGradient id="未命名的渐变_292" x1="144.29" y1="209.55" x2="144.29" y2="138.21" gradientUnits="userSpaceOnUse"><stop offset="0" stop-color="#85c4ff"/><stop offset="1" stop-color="#8a7bff"/></linearGradient><linearGradient id="未命名的渐变_292-2" x1="144.29" y1="172.69" x2="144.29" y2="29.35" xlink:href="#未命名的渐变_292"/><linearGradient id="未命名的渐变_292-3" x1="144.29" y1="197.69" x2="144.29" y2="99.95" xlink:href="#未命名的渐变_292"/><linearGradient id="未命名的渐变_234" x1="141.7" y1="67.06" x2="141.7" y2="119.3" gradientUnits="userSpaceOnUse"><stop offset="0" stop-color="#e68dff"/><stop offset="1" stop-color="#ffb3d9"/></linearGradient><linearGradient id="未命名的渐变_262" x1="144.29" y1="179.59" x2="144.29" y2="54.66" gradientUnits="userSpaceOnUse"><stop offset="0" stop-color="#d1ecff"/><stop offset="0.03" stop-color="#d2eeff"/><stop offset="1" stop-color="#f5ffff"/></linearGradient><linearGradient id="未命名的渐变_646" x1="258.16" y1="148.48" x2="221.67" y2="39.01" gradientUnits="userSpaceOnUse"><stop offset="0" stop-color="#7dc0ff"/><stop offset="1" stop-color="#4beeff"/></linearGradient><linearGradient id="未命名的渐变_646-2" x1="212.45" y1="161.46" x2="176.78" y2="54.43" xlink:href="#未命名的渐变_646"/><linearGradient id="未命名的渐变_646-3" x1="221.21" y1="158.54" x2="185.53" y2="51.51" xlink:href="#未命名的渐变_646"/><linearGradient id="未命名的渐变_312" x1="212.18" y1="129.96" x2="195.57" y2="68.44" gradientTransform="translate(30.44 -47.36) rotate(14.35)" gradientUnits="userSpaceOnUse"><stop offset="0" stop-color="#6694ff"/><stop offset="1" stop-color="#42cdff"/></linearGradient><linearGradient id="未命名的渐变_234-2" x1="339.95" y1="-99.16" x2="323.16" y2="-72.95" gradientTransform="translate(-52.15 182.42) rotate(-2.64)" xlink:href="#未命名的渐变_234"/><linearGradient id="未命名的渐变_234-3" x1="353.19" y1="-103.64" x2="331.7" y2="-70.09" gradientTransform="translate(-52.15 182.42) rotate(-2.64)" xlink:href="#未命名的渐变_234"/></defs><title>让电脑开口说话</title><g id="图层_2" data-name="图层 2"><g id="图层_1-2" data-name="图层 1"><circle class="cls-1" cx="166.63" cy="4.75" r="4.75"/><circle class="cls-1" cx="6.09" cy="126.35" r="4.75"/><rect class="cls-2" x="219.76" y="182.81" width="15.79" height="4.52" rx="2.26" ry="2.26"/><rect class="cls-3" x="219.76" y="191.19" width="35.13" height="4.52" rx="2.26" ry="2.26"/><rect class="cls-4" x="19.34" y="45.6" width="15.79" height="4.52" rx="2.26" ry="2.26" transform="translate(54.47 95.72) rotate(180)"/><rect class="cls-5" y="53.98" width="35.13" height="4.52" rx="2.26" ry="2.26" transform="translate(35.13 112.48) rotate(180)"/><circle class="cls-6" cx="79.23" cy="129.2" r="73.15"/><circle class="cls-6" cx="128.16" cy="164.82" r="55.57"/><circle class="cls-6" cx="179.46" cy="66.97" r="63.17"/><rect class="cls-7" x="124.36" y="124.12" width="39.86" height="59.14"/><rect class="cls-8" x="44.63" y="42.28" width="199.32" height="127.56" rx="24.7" ry="24.7"/><rect class="cls-9" x="87.68" y="180.8" width="113.21" height="12.76" rx="6.38" ry="6.38"/><rect class="cls-10" x="70.74" y="67.59" width="141.91" height="51.03"/><path class="cls-11" d="M211.37,51.44H77.2A21.62,21.62,0,0,0,55.59,73.06v62.81A21.61,21.61,0,0,0,77.2,157.48H211.37A21.6,21.6,0,0,0,233,135.87V73.06A21.61,21.61,0,0,0,211.37,51.44ZM115.59,83.53H89.28a4,4,0,1,1,0-8h26.31a4,4,0,0,1,0,8Zm28.7,31.9a23.92,23.92,0,0,1-23.92-23.92h47.84A23.92,23.92,0,0,1,144.29,115.43Zm55-31.9H173a4,4,0,1,1,0-8H199.3a4,4,0,1,1,0,8Z"/><path class="cls-12" d="M270.21,117.55l-59-2.79-9.38-36.65,53.53-29.8c2.4-1.25,5.33-.14,5.93,2.23l13.44,61.72A4.52,4.52,0,0,1,270.21,117.55Z"/><circle class="cls-13" cx="192.01" cy="100.13" r="18.38"/><path class="cls-14" d="M226.43,149.71l-13,3.32a3.73,3.73,0,0,1-4.24-1.93l-15.51-30.51,27.35-7,8.07,31.54a3.76,3.76,0,0,1-2.71,4.58Z"/><rect class="cls-15" x="186.63" y="70.5" width="33.42" height="53.47" rx="4.46" ry="4.46" transform="translate(-17.75 53.42) rotate(-14.35)"/><path class="cls-16" d="M271.82,64.21a24.41,24.41,0,0,1,6.47,33.91"/><path class="cls-17" d="M281.57,57.24a32.55,32.55,0,0,1,8.63,45.21"/></g></g></svg>