<?xml version="1.0" encoding="UTF-8"?>
<svg width="600px" height="400px" viewBox="0 0 600 400" version="1.1" xmlns="http://www.w3.org/2000/svg" xmlns:xlink="http://www.w3.org/1999/xlink">
    <title>团队构建应用程序</title>
    <g id="团队构建应用程序" stroke="none" stroke-width="1" fill="none" fill-rule="evenodd">
        <rect fill="rgb(255,255,255,0)" x="0" y="0" width="600" height="400"></rect>
        <g id="plant_7_" transform="translate(43.000000, 163.120603)" fill-rule="nonzero">
            <path d="M82.0872251,149.932739 C96.1416963,149.932739 104.11223,129.643673 101.385445,125.453814 C98.6586597,121.263955 90.0586597,132.787417 88.1702618,129.43499 C86.2827644,126.082563 105.231581,110.158759 101.735749,105.968 C98.2390157,101.777241 91.7363351,111.415357 90.2684817,109.53001 C88.7997277,107.644663 105.466618,91.0921106 102.168,87.1109347 C98.8693822,83.1297588 95.2591832,93.606206 92.345089,91.3016935 C89.4300942,88.9971809 104.532775,68.0442864 97.6113508,63.2256784 C90.6890262,58.4070704 80.4104503,95.9116181 76.4256335,96.9595327 C72.4399162,98.0074472 62.3711623,75.3787889 57.7568796,79.9878141 C53.1416963,84.5977387 73.6988482,111.625839 70.3425969,114.349518 C66.9863455,117.073196 54.6104503,102.406889 50.624733,108.273412 C46.6390157,114.139935 64.4693822,126.920894 63.2104503,128.597558 C61.9515183,130.273322 48.5274136,123.987633 47.0586597,128.387975 C45.5881047,132.787417 60.0622199,149.932739 82.0872251,149.932739 Z" id="Path" fill="#F3F9FF"></path>
            <path d="M75.2873717,158.095678 C74.9379686,158.095678 74.6227853,157.855513 74.5408377,157.501111 C68.2569843,130.18697 82.3114555,102.540015 82.4537382,102.263869 C82.6482513,101.888779 83.1102199,101.740362 83.4866387,101.934653 C83.8630576,102.128045 84.0098429,102.590387 83.8162304,102.966377 C83.6757487,103.237126 69.8779267,130.40105 76.0348063,157.158402 C76.1284607,157.570372 75.870911,157.981442 75.4584712,158.075889 C75.4026387,158.089382 75.3450052,158.095678 75.2873717,158.095678 Z" id="Path" fill="#D0E7FE"></path>
            <path d="M57.255288,125.504186 C57.255288,115.693367 44.0797277,112.822171 44.0797277,106.121814 C44.0797277,99.4214573 61.5678953,95.8324623 61.5678953,83.6280804 C61.5678953,71.424598 44.0797277,73.0994623 44.0797277,63.7671759 C44.0797277,54.4348894 52.8238115,54.4348894 52.8238115,42.949206 C52.8238115,31.4635226 30.1846492,0.833834171 20.1230995,0.833834171 C10.0615497,0.833834171 0,29.549392 0,39.1209447 C0,48.6924975 17.009089,53.000191 17.009089,61.1352462 C17.009089,69.2703015 0,69.7758191 0,77.7795477 C0,85.7832764 20.602178,93.0026432 20.602178,98.9438241 C20.602178,104.885005 5.74894241,108.754643 5.74894241,120.00106 C5.74894241,131.247477 20.0870785,153.741211 27.3092775,153.741211 C34.5314764,153.741211 57.255288,135.315005 57.255288,125.504186 Z" id="Path" fill="#E7F4FE"></path>
            <path d="M26.3529215,162.881905 C26.3087958,162.881905 26.2637696,162.878307 26.219644,162.870211 C25.8027016,162.797352 25.5244398,162.400673 25.5973822,161.984206 C33.1311623,119.05209 32.7322304,88.9495075 31.0689634,71.2572915 C29.2742199,52.1474673 25.6784293,43.0859296 25.6424084,42.9968794 C25.4830157,42.6046985 25.6730262,42.1585477 26.0656545,42.0002362 C26.4582827,41.8419246 26.9058429,42.0308191 27.0634346,42.4238995 C27.2147225,42.797191 30.7798953,51.7831709 32.5962513,71.1142714 C34.2667225,88.9000352 34.6719581,119.148337 27.1084607,162.248658 C27.0409215,162.620151 26.7176335,162.881905 26.3529215,162.881905 Z" id="Path" fill="#D0E7FE"></path>
        </g>
        <g id="cog_2_" transform="translate(109.638743, 22.798995)" fill="#F3F9FF" fill-rule="nonzero">
            <path d="M135.214513,36.1714925 C134.106869,33.5008844 131.265717,31.9816332 128.426366,32.5429196 L119.458953,34.3149296 C117.344524,34.733196 115.157152,33.997407 113.728921,32.3855075 C112.216042,30.6782613 110.61401,29.0717588 108.92733,27.571397 C107.319895,26.1420955 106.590471,23.9680101 107.008314,21.8586884 L108.779644,12.9167839 C109.341571,10.0806683 107.820586,7.24365327 105.146932,6.13727136 L91.906534,0.659331658 C89.2328796,-0.447050251 86.1485864,0.485728643 84.5384503,2.88738693 L79.4603979,10.4611558 C78.2645026,12.2448593 76.2050052,13.2702864 74.0590576,13.1452563 C71.8050471,13.0139296 69.5339267,13.0184271 67.2556021,13.1569497 C65.1015497,13.2873769 63.0393508,12.2646482 61.8380524,10.4737487 L56.7509948,2.88738693 C55.1399581,0.484829146 52.0565654,-0.447050251 49.382911,0.659331658 L36.1425131,6.13727136 C33.4688586,7.24365327 31.9478743,10.0806683 32.509801,12.9176834 L34.2838325,21.8748794 C34.7016754,23.9868995 33.9659476,26.1717789 32.3522094,27.5983819 C30.6430157,29.1095377 29.0346806,30.7097437 27.5335079,32.3945025 C26.1025759,34.0001055 23.9260105,34.7286985 21.8142827,34.3113317 L12.8612775,32.5420201 C10.0219267,31.9807337 7.18167539,33.4999849 6.07403141,36.170593 L0.589842932,49.3959045 C-0.517801047,52.0665126 0.416041885,55.1472915 2.82043979,56.755593 L10.4028482,61.8278593 C12.1885864,63.022392 13.2142827,65.0795427 13.0900105,67.2230452 C12.9594346,69.4753869 12.9630366,71.7439196 13.1026178,74.0187487 C13.2340942,76.1712462 12.2092984,78.2310955 10.416356,79.4301256 L2.82134031,84.5113869 C0.416942408,86.1196884 -0.516900524,89.2004673 0.590743455,91.8710754 L6.07493194,105.096387 C7.18257592,107.766995 10.0237277,109.285347 12.8630785,108.72496 L21.8304921,106.95295 C23.9449215,106.535583 26.1322932,107.270472 27.5605236,108.882372 C29.0734031,110.588719 30.6754346,112.19702 32.3621152,113.696482 C33.9704503,115.125784 34.6989738,117.299869 34.2811309,119.409191 L32.509801,128.351095 C31.9478743,131.187211 33.4679581,134.025126 36.1425131,135.131508 L49.382911,140.609447 C52.0565654,141.715829 55.1408586,140.78305 56.7509948,138.381392 L61.8290471,130.807623 C63.0249424,129.02392 65.0844398,127.998492 67.2303874,128.123523 C69.4843979,128.254849 71.7555183,128.250352 74.0338429,128.111829 C76.1878953,127.981402 78.2500942,129.003231 79.4513927,130.79503 L84.5375497,138.382291 C86.1476859,140.78395 89.2319791,141.716729 91.9056335,140.610347 L105.146031,135.132407 C107.819686,134.026025 109.33977,131.188111 108.778743,128.351995 L107.004712,119.394799 C106.586869,117.282779 107.322597,115.097899 108.936335,113.671296 C110.645529,112.160141 112.253864,110.559035 113.755937,108.874276 C115.186869,107.268673 117.363435,106.54008 119.475162,106.957447 L128.427267,108.726759 C131.266618,109.288045 134.10777,107.769693 135.214513,105.098186 L140.698702,91.8728744 C141.806346,89.2022663 140.872503,86.1214874 138.468105,84.5131859 L130.884796,79.4409196 C129.099058,78.2454874 128.073361,76.1892362 128.197634,74.0457337 C128.32911,71.7942915 128.324607,69.5257588 128.185927,67.2509296 C128.055351,65.0993317 129.079246,63.0385829 130.872188,61.8395528 L138.468105,56.759191 C140.872503,55.1508894 141.806346,52.0701106 140.698702,49.3995025 L135.214513,36.1714925 Z M82.2619267,98.6487889 C66.7720209,105.057709 49.0136963,97.7106131 42.597466,82.2383568 C36.1812356,66.7661005 43.536712,49.0280101 59.0266178,42.6190905 C74.5165236,36.2101709 92.2748482,43.5572663 98.6910785,59.0295226 C105.107309,74.5017789 97.7509319,92.2398693 82.2619267,98.6487889 Z" id="Shape"></path>
        </g>
        <g id="plant_6_" transform="translate(356.382199, 65.075377)" fill-rule="nonzero">
            <path d="M56.1071204,104.134824 C56.1071204,104.134824 110.739183,9.06693467 202.617801,76.6677688 L177.585047,71.2851759 L185.042283,78.1645327 L160.267979,86.7979095 L141.71089,74.1545729 C141.71089,74.1545729 151.960649,86.272603 156.799162,90.0828744 C151.56622,93.1186784 124.883707,96.0996131 124.883707,96.0996131 L121.767895,81.808397 C121.767895,81.808397 120.910597,94.0757437 123.018723,99.4619347 L97.7158115,101.628824 L94.1074136,92.2956382 L85.3417173,100.050206 L56.1071204,104.134824 Z" id="Path" fill="#8AE6B9"></path>
            <path d="M57.8523351,107.272271 C57.8523351,107.272271 81.890911,0.318422111 189.675476,37.7510101 L163.909696,45.0045578 L163.568398,51.5708894 L144.697026,65.4861156 L130.749717,53.3428995 C130.749717,53.3428995 132.805613,64.6630754 138.555455,66.8740402 C134.455372,71.3193568 121.172649,79.2781106 121.172649,79.2781106 L113.964859,66.5466231 C113.964859,66.5466231 112.237654,75.0486734 115.846953,79.5713467 L96.8576126,92.5861759 L90.6467016,84.7362613 L93.913801,94.5524774 L57.8523351,107.272271 Z" id="Path" fill="#1EAF69"></path>
            <path d="M115.385885,78.8184673 C115.385885,78.8184673 90.6980314,-11.4712915 0.31878534,24.5409899 L22.5608168,29.7472814 L23.1092356,35.3331608 L39.7374031,46.4824322 L51.1461361,35.5985126 C51.1461361,35.5985126 49.8394764,45.3301759 45.026178,47.433201 C48.694911,51.0689698 60.3260733,57.3501608 60.3260733,57.3501608 L65.9687539,46.2197789 C65.9687539,46.2197789 67.7752042,53.4040653 64.8773194,57.3978342 L81.5703246,67.7753367 L86.5547225,60.845608 L84.1566283,69.3404623 L115.385885,78.8184673 Z" id="Path" fill="#8AE6B9"></path>
            <path d="M57.7802932,107.272271 C57.7802932,107.272271 79.8503246,-26.3354874 166.385236,5.27825126 L146.635853,21.7498492 L130.267037,17.8163467 L146.729508,25.8902362 L136.17177,39.3089397 L113.719916,35.9403216 L122.101089,41.6917085 L112.757257,59.8300754 L101.048649,53.1225226 C101.048649,53.1225226 101.643895,61.7774874 106.325717,65.1802864 L91.4787853,82.7654623 L83.4037906,76.8449698 L89.1635393,85.4414673 L57.7802932,107.272271 Z" id="Path" fill="#2CCD7F"></path>
        </g>
        <g id="desktop" transform="translate(169.973822, 110.050251)" fill-rule="nonzero">
            <rect id="Rectangle" fill="#F3F9FF" x="13.3997906" y="13.1929296" width="280.663476" height="152.914573"></rect>
            <path d="M306.820084,178.850683 L306.820084,13.1929296 C306.820084,6.15526131 301.108963,0.449748744 294.062366,0.449748744 L13.3997906,0.449748744 C6.35409424,0.449748744 0.642073298,6.15436181 0.642073298,13.1929296 L0.642073298,178.850683 L306.820084,178.850683 L306.820084,178.850683 Z M13.3997906,13.1929296 L294.063267,13.1929296 L294.063267,166.107503 L13.3997906,166.107503 L13.3997906,13.1929296 Z" id="Shape" fill="#224380"></path>
            <path d="M0.642073298,178.849784 L0.642073298,204.335246 C0.642073298,211.372915 6.35409424,217.078427 13.3997906,217.078427 L115.458827,217.078427 C115.458827,238.191432 104.035686,255.30707 89.9442932,255.30707 L89.9442932,255.30707 C82.8985969,255.30707 77.1865759,261.012583 77.1865759,268.050251 L77.1865759,268.050251 L230.275581,268.050251 L230.275581,268.050251 C230.275581,261.012583 224.56356,255.30707 217.517864,255.30707 L217.517864,255.30707 C203.426471,255.30707 192.00333,238.191432 192.00333,217.078427 L294.062366,217.078427 C301.108063,217.078427 306.820084,211.372915 306.820084,204.335246 L306.820084,178.849784 L0.642073298,178.849784 L0.642073298,178.849784 Z" id="Path" fill="#DAE7FF"></path>
            <path d="M89.9442932,255.30707 L217.518764,255.30707 C203.427372,255.30707 192.00423,238.191432 192.00423,217.078427 L115.459728,217.078427 C115.458827,238.192332 104.035686,255.30707 89.9442932,255.30707 Z" id="Path" fill="#C3D3F3"></path>
            <ellipse id="Oval" fill="#224380" cx="153.731079" cy="197.964106" rx="6.37840838" ry="6.3711407"></ellipse>
            <ellipse id="Oval" fill="#F3F9FF" cx="153.731079" cy="6.82088945" rx="3.18965445" ry="3.1860201"></ellipse>
            <path d="M251.230764,115.568337 L251.230764,113.835005 L260.022576,113.835005 L260.062199,115.087106 L260.042387,115.568337 L251.230764,115.568337 Z M242.438953,115.568337 L233.648042,115.568337 L233.648042,113.835005 L242.438953,113.835005 L242.438953,115.568337 Z M224.857131,115.568337 L216.065319,115.568337 L216.065319,113.835005 L224.857131,113.835005 L224.857131,115.568337 Z M208.098387,111.016879 C207.629215,109.993251 207.390576,108.900362 207.390576,107.767894 L207.390576,101.965236 L209.125885,101.965236 L209.125885,107.767894 C209.125885,108.649402 209.310492,109.499427 209.676105,110.294583 L208.098387,111.016879 Z M267.491518,110.04902 L265.830953,109.543503 C266.006555,108.969623 266.095707,108.372357 266.095707,107.767894 L266.095707,101.04595 L267.831016,101.04595 L267.831016,107.767894 C267.831016,108.544161 267.716649,109.311432 267.491518,110.04902 Z M209.126785,93.1843417 L207.391476,93.1843417 L207.391476,84.4034472 L209.126785,84.4034472 L209.126785,93.1843417 Z M267.831016,92.2650553 L266.095707,92.2650553 L266.095707,83.4832613 L267.831016,83.4832613 L267.831016,92.2650553 Z M209.126785,75.6225528 L207.391476,75.6225528 L207.391476,66.8407588 L209.126785,66.8407588 L209.126785,75.6225528 Z M267.831016,74.7023668 L266.095707,74.7023668 L266.095707,65.9205729 L267.831016,65.9205729 L267.831016,74.7023668 Z M209.126785,58.0598643 L207.391476,58.0598643 L207.391476,51.3649045 C207.391476,50.5778442 207.509445,49.7997789 207.74088,49.053196 L209.397843,49.566809 C209.218639,50.1460854 209.126785,50.7514472 209.126785,51.364005 L209.126785,58.0598643 L209.126785,58.0598643 Z M267.831016,57.1396784 L266.095707,57.1396784 L266.095707,51.3649045 C266.095707,50.4753015 265.907497,49.6180804 265.535581,48.8175276 L267.109696,48.0880352 C267.588775,49.1188593 267.831016,50.2216432 267.831016,51.3649045 L267.831016,57.1396784 L267.831016,57.1396784 Z M259.129257,45.297794 L250.337445,45.297794 L250.337445,43.5644623 L259.129257,43.5644623 L259.129257,45.297794 Z M241.546534,45.297794 L232.754723,45.297794 L232.754723,43.5644623 L241.546534,43.5644623 L241.546534,45.297794 Z M223.962911,45.297794 L215.199016,45.297794 L215.175602,43.7938342 L215.177403,43.5653618 L223.962911,43.5653618 L223.962911,45.297794 Z" id="Shape" fill="#B8DDFE"></path>
            <g id="Group" transform="translate(39.623037, 41.376884)">
                <path d="M133.383749,75.4093719 L9.0700733,75.4093719 C4.54494241,75.4093719 0.877109948,71.7448191 0.877109948,67.2257437 L0.877109948,13.3242563 C0.877109948,8.80428141 4.54584293,5.14062814 9.0700733,5.14062814 L133.383749,5.14062814 C137.90888,5.14062814 141.577613,8.8051809 141.577613,13.3242563 L141.577613,67.2257437 C141.577613,71.7448191 137.90888,75.4093719 133.383749,75.4093719 Z" id="Path" fill="#D0E7FE"></path>
                <path d="M133.383749,71.075593 L9.0700733,71.075593 C4.54494241,71.075593 0.877109948,67.4110402 0.877109948,62.8919648 L0.877109948,8.99047739 C0.877109948,4.47050251 4.54584293,0.806849246 9.0700733,0.806849246 L133.383749,0.806849246 C137.90888,0.806849246 141.577613,4.47140201 141.577613,8.99047739 L141.577613,62.8919648 C141.577613,67.4119397 137.90888,71.075593 133.383749,71.075593 Z" id="Path" fill="#FFFFFF"></path>
                <polygon id="Rectangle" fill="#7266D5" transform="translate(97.609231, 37.406314) rotate(-90.000064) translate(-97.609231, -37.406314) " points="93.2174345 5.16261814 102.001027 5.16261813 102.001027 69.6500108 93.2174344 69.6500108"></polygon>
                <polygon id="Rectangle" fill="#9E95E3" transform="translate(112.264434, 37.406320) rotate(-90.000062) translate(-112.264434, -37.406320) " points="107.872638 19.8186443 116.656231 19.8186443 116.656231 54.9939951 107.872638 54.9939951"></polygon>
                <polygon id="Rectangle" fill="#7266D5" transform="translate(97.608961, 54.973841) rotate(-90.000064) translate(-97.608961, -54.973841) " points="93.2171643 22.7301444 102.000757 22.7301444 102.000757 87.2175371 93.2171642 87.2175371"></polygon>
                <polygon id="Rectangle" fill="#9E95E3" transform="translate(123.989592, 54.974149) rotate(-90.000079) translate(-123.989592, -54.974149) " points="119.597796 49.1117403 128.381389 49.1117403 128.381389 60.836557 119.597796 60.836557"></polygon>
                <path d="M31.6543037,54.9718894 C21.1487958,54.9718894 12.6010262,46.4338593 12.6010262,35.9403216 C12.6010262,25.4467839 21.1487958,16.9087538 31.6543037,16.9087538 L31.6543037,25.6923467 C25.9981152,25.6923467 21.3946387,30.2896784 21.3946387,35.9403216 C21.3946387,41.5909648 25.9972147,46.1882965 31.6543037,46.1882965 C37.3113927,46.1882965 41.9139686,41.5909648 41.9139686,35.9403216 L50.7075812,35.9403216 C50.7075812,46.4347588 42.1598115,54.9718894 31.6543037,54.9718894 Z" id="Path" fill="#FFE994"></path>
                <path d="M50.7075812,35.9412211 L41.9139686,35.9412211 C41.9139686,30.2914774 37.3113927,25.6932462 31.6543037,25.6932462 L31.6543037,16.9096533 C42.1598115,16.9096533 50.7075812,25.4467839 50.7075812,35.9412211 Z" id="Path" fill="#FFCB01"></path>
            </g>
        </g>
        <g id="man_with_pencil" transform="translate(91.628272, 178.412060)" fill-rule="nonzero">
            <polygon id="Path" fill="#F1B282" points="17.3278743 142.443523 6.92772775 140.130015 8.43880628 132.062422 19.0811937 133.946869"></polygon>
            <path d="M12.8360628,132.886362 C13.1440419,130.868789 7.54368586,129.70304 6.46846073,129.534834 C4.62418848,129.246095 3.85514136,131.646854 3.57417801,132.763131 C3.29321466,133.879407 2.89158115,138.171809 1.41292147,140.329704 C-0.0657382199,142.488497 0.203518325,151.582417 2.94561257,152.056452 C5.68770681,152.530487 5.73093194,147.783839 7.49055497,145.481126 C9.0052356,143.498633 12.8315602,142.994915 13.0638953,141.470266 C13.2890262,139.994191 9.79499476,137.572744 10.0831623,135.682899 C10.3704293,133.793955 12.6946806,133.814643 12.8360628,132.886362 Z" id="Path" fill="#0B224E"></path>
            <polygon id="Path" fill="#F1B282" points="78.5778848 183.019854 76.7300105 193.500799 68.5928796 192.35394 70.0012984 181.650819"></polygon>
            <path d="M63.0897801,74.5098744 L49.0127958,65.6030503 C49.0127958,65.6030503 53.0165236,60.9157688 50.4599372,51.2659598 C50.5004607,51.2614623 50.5382827,51.2524673 50.5734031,51.2416734 C52.6914346,50.5733467 54.028712,50.1280955 53.5829529,49.237593 C53.1371937,48.3470905 51.1308272,43.8936784 52.9138639,43.6715025 C54.6969005,43.4493266 59.3787225,57.0308392 60.8276649,56.8086633 C61.1824712,56.7528945 62.0028482,56.4992362 63.0321466,56.1052563 C63.0303455,57.1783568 64.1505969,58.4457487 66.373089,60.2384472 C69.2709738,62.5753417 63.0897801,74.5098744 63.0897801,74.5098744 Z" id="Path" fill="#F1B282"></path>
            <path d="M67.9823246,42.4643769 C66.4667435,45.4057337 63.0555602,49.3491307 63.0555602,49.3491307 L63.0555602,55.5835477 C63.0555602,55.5835477 63.0312461,55.7769397 63.0312461,56.1043568 C62.0010471,56.4983367 61.1806702,56.751995 60.8267644,56.8077638 C59.377822,57.0308392 54.6969005,43.4484271 52.9129634,43.670603 C51.1290262,43.8927789 53.1362932,48.346191 53.5820524,49.2366935 C54.0278115,50.127196 52.690534,50.5724472 50.5725026,51.2407739 C50.5364817,51.2515678 50.4986597,51.2605628 50.4590366,51.2650603 C50.2852356,50.6129246 50.0826178,49.935603 49.8457801,49.2366935 C46.1140105,38.2151508 57.4831204,32.8181658 57.4831204,32.8181658 C57.4921257,32.8226633 57.5029319,32.8244623 57.5119372,32.8316583 C57.6659267,32.9072161 58.3989529,33.2616181 59.4246492,33.7824271 C62.4648168,35.3295628 68.0624712,38.3536734 68.6289005,39.8855176 C68.8387225,40.4513015 68.5352461,41.3912764 67.9823246,42.4643769 Z" id="Path" fill="#F1B282"></path>
            <path d="M79.1055916,105.125171 C79.1055916,105.125171 91.3662199,131.621668 90.2513717,142.754749 C89.1365236,153.887829 81.1119581,185.505166 79.1055916,185.950417 C77.0992251,186.395668 69.1980314,185.950417 68.3065131,184.169412 C67.4149948,182.388407 73.5331518,158.341241 73.0873927,146.985085 C72.6416335,135.629829 57.4831204,110.469085 57.4831204,110.469085 L79.1055916,105.125171 Z" id="Path" fill="#0B224E"></path>
            <path d="M63.4986178,121.294538 C67.6311204,129.227206 72.4696335,139.722543 73.0378639,146.274482 C79.7818848,129.050905 72.1778639,107.960387 72.1778639,107.960387 L63.4986178,121.294538 Z" id="Path" fill="#03193F"></path>
            <path d="M49.0118953,105.125171 L43.3863246,135.678402 C35.8012147,134.233809 21.269466,131.637859 19.0559791,132.505874 C16.3499058,133.566382 13.0368796,142.532573 14.5974869,142.977824 C16.1580942,143.423075 42.9045445,151.693955 51.1839581,149.435317 C60.1288586,146.99498 69.2979895,128.059658 73.5331518,109.356407 L49.0118953,105.125171 Z" id="Path" fill="#102B5E"></path>
            <path d="M99.8365445,26.9714322 C99.8365445,26.9714322 99.1674555,20.5139397 98.9450262,17.8424322 C98.7216963,15.1709246 101.619581,12.0532663 103.403518,12.4985176 C105.187455,12.9437688 107.86201,14.9478492 107.638681,18.064608 C107.415351,21.1822663 105.409885,28.3071859 103.403518,29.1976884 C101.397152,30.0890905 99.8365445,26.9714322 99.8365445,26.9714322 Z" id="Path" fill="#F1B282"></path>
            <path d="M63.0321466,56.1043568 C62.0019476,56.4983367 61.1815707,56.751995 60.8276649,56.8077638 C59.3787225,57.0308392 54.697801,43.4484271 52.9138639,43.670603 C51.1299267,43.8927789 53.1371937,48.346191 53.5829529,49.2366935 C54.028712,50.127196 52.6914346,50.5724472 50.5734031,51.2407739 C50.5373822,51.2515678 50.4995602,51.2605628 50.4599372,51.2650603 C48.2437487,51.6122663 42.2147435,43.2244523 42.2147435,43.2244523 L54.2520419,31.869196 C54.2520419,31.869196 55.8324607,32.1678291 57.4840209,32.8181658 C57.4930262,32.8226633 57.5038325,32.8244623 57.5128377,32.8316583 C58.1729215,33.0898141 58.8411099,33.4064372 59.4255497,33.7824271 C59.7353298,33.9803166 60.0225969,34.196196 60.2702408,34.4300653 C62.1649424,36.2110704 56.3691728,42.3348492 58.9329634,45.3400704 C61.4967539,48.346191 65.5085864,43.5590653 67.5149529,42.5723166 C67.6797487,42.4922613 67.8355393,42.4562814 67.9832251,42.4634774 C69.6302827,42.5255427 70.2462408,47.6823618 70.8585969,50.2387337 C71.3646911,52.3417588 66.2082932,54.8891357 63.0321466,56.1043568 Z" id="Path" fill="#0B224E"></path>
            <ellipse id="Oval" fill="#1EAF69" transform="translate(49.843967, 36.991554) rotate(-45.000000) translate(-49.843967, -36.991554) " cx="49.8439671" cy="36.9915538" rx="14.2974301" ry="2.90791778"></ellipse>
            <path d="M42.2138429,43.2262513 C42.2138429,43.2262513 37.7553508,37.9938744 40.4308063,36.1013317 C43.1053613,34.2087889 41.3223246,35.6560804 43.1053613,34.2087889 C44.8883979,32.7614975 42.8820314,30.3121658 45.445822,29.0879497 C48.0096126,27.8637337 55.5884188,31.870995 55.5884188,31.870995 L42.2138429,43.2262513 Z" id="Path" fill="#2CCD7F"></path>
            <path d="M18.3616749,22.8526332 C18.3598743,21.5906382 23.0425969,18.1770452 24.3807749,20.4033015 C25.7189529,22.6295578 27.9477487,36.2119698 30.1765445,41.1106332 C32.4053403,46.0092965 38.870199,58.4781307 50.6841675,61.1496382 C59.6002513,63.8211457 61.3841885,67.8293065 62.721466,67.6071307 C64.0587435,67.3849548 63.390555,58.7003065 64.7278325,57.809804 C66.0651099,56.9193015 79.6630157,56.6962261 85.4587853,49.1260553 C91.254555,41.5558844 96.1588063,25.0788894 98.6109319,25.0788894 C101.063058,25.0788894 105.075791,28.1965477 104.852461,29.5323015 C104.629131,30.8680553 95.7868901,50.4465176 93.4842513,54.0247186 C90.4747016,58.7003065 75.6511832,72.2827186 75.8745131,78.0718844 C76.0978429,83.8610503 83.0075602,98.5561407 83.2308901,103.009553 C83.4542199,107.462965 76.9893613,111.024975 68.2957068,111.915477 C59.6020524,112.80598 49.1253613,114.141734 48.2338429,108.130392 C47.3423246,102.118151 48.122178,90.8744322 46.1158115,83.7495126 C44.109445,76.624593 29.3975916,64.6010101 26.276377,55.4720101 C23.1542618,46.3430101 18.3634764,24.1146281 18.3616749,22.8526332 Z" id="Path" fill="#1B90FB"></path>
            <path d="M52.9048586,100.386618 C52.8265131,104.441553 50.5932147,107.306452 48.4868901,109.114442 C48.3707225,108.811312 48.2842723,108.482095 48.2329424,108.130392 C47.3414241,102.118151 48.1212775,90.8744322 46.114911,83.7495126 C45.8609634,82.8473166 45.4034974,81.8704623 44.795644,80.8279447 C45.0423874,81.1850452 53.051644,92.7903618 52.9048586,100.386618 Z" id="Path" fill="#1277D7"></path>
            <path d="M69.2205445,187.930211 C67.1889634,187.713432 66.2740314,193.354181 66.1533613,194.434477 C65.9471414,196.288342 68.3830576,196.947673 69.5123141,197.177945 C70.6415707,197.408216 74.952377,197.616899 77.1766702,198.995829 C79.4018639,200.374759 88.4845445,199.699236 88.8357487,196.941377 C89.1869529,194.184417 84.4375916,194.352623 82.0557068,192.700246 C80.0052147,191.278141 79.3307225,187.482261 77.7953298,187.318553 C76.3085654,187.160241 74.0437487,190.754633 72.1409424,190.552246 C70.2381361,190.349859 70.155288,188.029156 69.2205445,187.930211 Z" id="Path" fill="#0B224E"></path>
            <g id="Group" transform="translate(14.408377, 0.000000)">
                <path d="M5.49229319,0.384984925 L16.9280419,2.09582915 L14.6821361,17.0769598 L3.24638743,15.3661156 C1.27874346,15.0719799 -0.0774450262,13.240603 0.217026178,11.275201 L1.39581152,3.41089447 C1.69118325,1.44459296 3.52554974,0.0899497487 5.49229319,0.384984925 Z" id="Path" fill="#1B90FB"></path>
                <polygon id="Rectangle" fill="#FFD125" transform="translate(62.749771, 16.610824) rotate(98.516601) translate(-62.749771, -16.610824) " points="55.1672333 -30.863902 70.3164631 -30.861371 70.3323085 64.0855503 55.1830787 64.0830193"></polygon>
                <polygon id="Rectangle" fill="#FFD94A" transform="translate(62.749838, 16.610379) rotate(98.516601) translate(-62.749838, -16.610379) " points="60.2168933 -30.8635031 65.2669365 -30.8626594 65.2827818 64.0842618 60.2327387 64.0834181"></polygon>
                <polygon id="Rectangle" fill="#FFE270" transform="translate(62.000731, 21.604290) rotate(98.516601) translate(-62.000731, -21.604290) " points="59.4677866 -25.8695922 64.5178297 -25.8687485 64.5336751 69.0781727 59.483632 69.077329"></polygon>
                <path d="M110.828335,16.1396834 C109.447832,15.932799 108.160984,16.8835678 107.954764,18.2624975 C107.747644,19.6414271 108.699497,20.926809 110.08,21.132794 L129.703309,26.6206281 L110.828335,16.1396834 Z" id="Path" fill="#FFE994"></path>
                <path d="M129.703309,26.6215276 L110.08,21.1336935 C108.699497,20.926809 107.412649,21.8775779 107.206429,23.2565075 C106.999309,24.6354372 107.951162,25.9208191 109.331665,26.126804 L129.703309,26.6215276 Z" id="Path" fill="#FEF0B9"></path>
                <path d="M129.703309,26.6215276 L109.331665,26.1277035 C107.951162,25.9208191 106.664314,26.8715879 106.458094,28.2505176 C106.250974,29.6294472 107.202827,30.9148291 108.58333,31.1208141 L129.703309,26.6215276 Z" id="Path" fill="#FFF9DE"></path>
                <polygon id="Path" fill="#224380" points="121.783204 28.3089849 129.703309 26.6215276 122.625194 22.6907236"></polygon>
                <polygon id="Rectangle" fill="#224380" transform="translate(15.804188, 9.580431) rotate(-171.483399) translate(-15.804188, -9.580431) " points="13.2776782 2.00623802 18.3332291 2.00539432 18.3306982 17.1546241 13.2751472 17.1554678"></polygon>
            </g>
            <path d="M24.4915393,23.1863467 C24.4915393,23.1863467 23.1542618,17.3971809 22.9309319,14.9478492 C22.7076021,12.4985176 24.4915393,10.7175126 23.6000209,8.49035678 C22.053822,4.62791457 16.6894031,3.14644221 15.5754555,10.4944372 C14.4606073,17.8424322 18.0275812,15.1700251 18.6966702,18.2876834 C19.3657592,21.4053417 20.0339476,24.7451759 20.0339476,24.7451759 L24.4915393,23.1863467 Z" id="Path" fill="#F1B282"></path>
        </g>
        <g id="woman_3_" transform="translate(435.628272, 208.994975)" fill-rule="nonzero">
            <path d="M50.586911,6.56992965 L7.98494241,6.56992965 C4.0631623,6.56992965 0.884314136,9.74515578 0.884314136,13.6624673 L0.884314136,66.8542513 C0.884314136,70.7715628 4.0631623,73.9467889 7.98494241,73.9467889 L50.586911,73.9467889 C54.5086911,73.9467889 57.6875393,70.7715628 57.6875393,66.8542513 L57.6875393,13.6624673 C57.6866387,9.74515578 54.5077906,6.56992965 50.586911,6.56992965 Z" id="Path" fill="#1277D7"></path>
            <path d="M50.586911,3.60788442 L7.98494241,3.60788442 C4.0631623,3.60788442 0.884314136,6.78311055 0.884314136,10.7004221 L0.884314136,63.892206 C0.884314136,67.8095176 4.0631623,70.9847437 7.98494241,70.9847437 L50.586911,70.9847437 C54.5086911,70.9847437 57.6875393,67.8095176 57.6875393,63.892206 L57.6875393,10.7004221 C57.6866387,6.78311055 54.5077906,3.60788442 50.586911,3.60788442 Z" id="Path" fill="#1B90FB"></path>
            <path d="M29.2850262,46.1622111 C19.4981361,46.1622111 11.5339058,38.2079548 11.5339058,28.4313166 C11.5339058,18.6555779 19.4972356,10.7004221 29.2850262,10.7004221 C39.0719162,10.7004221 47.0361466,18.6546784 47.0361466,28.4313166 C47.0361466,38.2070553 39.0728168,46.1622111 29.2850262,46.1622111 Z M29.2850262,14.2462412 C21.4531728,14.2462412 15.0846702,20.6074874 15.0846702,28.4304171 C15.0846702,36.2533467 21.4531728,42.614593 29.2850262,42.614593 C37.1168796,42.614593 43.4853822,36.2533467 43.4853822,28.4304171 C43.4853822,20.6074874 37.1168796,14.2462412 29.2850262,14.2462412 Z" id="Shape" fill="#85C3FE"></path>
            <path d="M29.2850262,46.1622111 C19.4981361,46.1622111 11.5339058,38.2079548 11.5339058,28.4313166 C11.5339058,18.6555779 19.4972356,10.7004221 29.2850262,10.7004221 C30.2665969,10.7004221 31.0599581,11.4937789 31.0599581,12.4733317 C31.0599581,13.4528844 30.2656963,14.2462412 29.2850262,14.2462412 C21.4531728,14.2462412 15.0846702,20.6074874 15.0846702,28.4304171 C15.0846702,36.2533467 21.4531728,42.614593 29.2850262,42.614593 C37.1168796,42.614593 43.4853822,36.2533467 43.4853822,28.4304171 C43.4853822,27.4499648 44.279644,26.6575075 45.2603141,26.6575075 C46.2409843,26.6575075 47.0352461,27.4508643 47.0352461,28.4304171 C47.0361466,38.2070553 39.0728168,46.1622111 29.2850262,46.1622111 Z" id="Path" fill="#FFFFFF"></path>
            <ellipse id="Oval" fill="#224380" cx="45.2612147" cy="28.4313166" rx="3.54986387" ry="3.5458191"></ellipse>
            <path d="M36.3856545,53.2538492 L22.1852984,53.2538492 C21.2091309,53.2538492 20.4103665,54.0517035 20.4103665,55.0267588 C20.4103665,56.0018141 21.2091309,56.7996683 22.1852984,56.7996683 L36.3856545,56.7996683 C37.361822,56.7996683 38.1605864,56.0018141 38.1605864,55.0267588 C38.1605864,54.0517035 37.361822,53.2538492 36.3856545,53.2538492 Z" id="Path" fill="#224380"></path>
            <path d="M36.3856545,60.3463869 L22.1852984,60.3463869 C21.2091309,60.3463869 20.4103665,61.1442412 20.4103665,62.1192965 C20.4103665,63.0943518 21.2091309,63.892206 22.1852984,63.892206 L36.3856545,63.892206 C37.361822,63.892206 38.1605864,63.0943518 38.1605864,62.1192965 C38.1605864,61.1442412 37.361822,60.3463869 36.3856545,60.3463869 Z" id="Path" fill="#BADDFE"></path>
            <g id="Group" transform="translate(20.712042, 0.000000)">
                <path d="M46.4535079,10.5205226 C44.4129215,11.2023417 44.566911,14.6977889 43.9302408,15.7151206 C43.2944712,16.7324523 42.2525654,18.1392663 42.313801,18.9335226 C42.3750366,19.7286784 44.4201257,19.698995 44.2589319,21.644608 C44.0986387,23.5902211 44.0779267,26.0107688 47.0559581,26.6197286 C50.0339895,27.2286884 49.5630157,29.8885025 49.6755812,32.404397 C49.7881466,34.9202915 50.1645654,35.6470854 51.1857592,35.5994121 C51.7575916,35.5733266 54.6689843,35.0111407 57.7892984,32.7066281 C60.239623,30.8977387 63.1005864,25.6068945 62.587288,22.5764874 C61.5985131,16.7387487 59.4219476,12.007392 54.6644817,10.6797337 C49.9079162,9.35297487 48.1780105,9.94484422 46.4535079,10.5205226 Z" id="Path" fill="#F1B282"></path>
                <path d="M11.8851099,159.07793 C14.4813194,156.415417 14.3678534,146.362633 14.5560628,141.851653 L22.8696963,143.448261 C21.8539058,146.932015 20.180733,152.738271 19.7475812,154.690181 C19.1136126,157.546985 19.6611309,162.438452 19.1397277,163.632985 C18.6183246,164.827518 6.2991623,166.200151 6.2991623,166.200151 L4.28379058,164.790638 C4.28379058,164.791538 8.67024084,162.374588 11.8851099,159.07793 Z" id="Path" fill="#F1B282"></path>
                <path d="M18.9992461,161.823196 C20.1771309,161.957221 19.1955602,166.053533 17.7925445,167.276849 C17.8366702,167.279548 12.6064293,167.219281 12.6064293,167.219281 L12.6973822,165.877231 C12.6973822,165.877231 7.97593717,167.49003 5.47428272,167.320025 C2.90238743,167.145523 0.801465969,166.838794 0.829382199,166.420528 C0.869005236,165.833156 4.33331937,164.041357 5.07805236,164.091729 C6.10645026,164.161889 7.06100524,165.476955 7.93991623,165.492246 C8.81972775,165.507538 18.039288,161.714357 18.9992461,161.823196 Z" id="Path" fill="#0B224E"></path>
                <path d="M56.2971309,156.878658 C57.0427644,153.237492 51.5117487,144.837985 49.231623,140.940462 L57.0922932,137.799417 C58.1206911,141.279573 59.8523979,147.068739 60.5430995,148.94509 C61.5534869,151.691256 64.6593927,155.512322 64.8665131,156.799503 C65.0736335,158.085784 55.4470366,165.887126 55.4470366,165.887126 L52.9886073,165.788181 C52.9886073,165.787281 55.3731937,161.38694 56.2971309,156.878658 Z" id="Path" fill="#F1B282"></path>
                <path d="M63.7687749,155.351312 C64.8322932,154.828704 66.221801,158.806281 65.702199,160.591784 C65.7409215,160.571095 61.3067435,163.340648 61.3067435,163.340648 L60.657466,162.161407 C60.657466,162.161407 57.5560628,166.066126 55.3587853,167.272352 C53.1002723,168.512759 51.1650471,169.38797 50.9633298,169.020975 C50.6796649,168.505563 52.6256963,165.12795 53.2794764,164.76905 C54.1827016,164.272528 55.6973822,164.865296 56.4457173,164.403854 C57.1931518,163.943312 62.9015707,155.776774 63.7687749,155.351312 Z" id="Path" fill="#0B224E"></path>
                <path d="M50.7012775,74.8840653 L29.7127749,74.8840653 C29.7127749,74.8840653 19.4269948,97.3571106 17.3413822,112.630578 C15.2566702,127.903146 14.5209424,145.79505 14.5209424,145.79505 L21.8863246,146.889739 C23.5973194,139.45809 27.6622827,135.59205 27.1102618,121.404276 C30.1639372,115.751834 34.5774031,108.18706 34.5774031,108.18706 L50.7012775,74.8840653 Z" id="Path" fill="#0B224E"></path>
                <path d="M46.9154764,113.96903 C48.3455079,103.560945 53.1696126,97.7843719 53.1696126,85.7086181 C53.1696126,79.647804 50.702178,74.8849648 50.702178,74.8849648 L29.7136754,74.8849648 C29.7136754,74.8849648 27.5055916,97.1943015 33.2869529,117.371829 C35.5418639,125.240633 51.6603351,145.129422 51.6603351,145.129422 L58.8843351,143.59308 C54.7986597,132.56794 53.5289215,122.432402 46.9154764,113.96903 Z" id="Path" fill="#102B5E"></path>
                <path d="M61.6543455,40.3982312 C62.4215916,31.502201 51.9521047,31.3366935 49.9061152,31.3375895 C49.0136963,31.3375895 46.7939058,33.0187538 44.5326911,35.3295628 C42.1309948,38.1728744 34.4045026,41.8976935 33.8353717,45.6863769 C33.3625969,48.8364171 35.0519791,55.3541759 33.3454869,63.0574724 C31.2994974,69.5491457 29.7136754,74.8858643 29.7136754,74.8858643 L50.702178,74.8858643 C50.702178,74.8858643 49.2766492,67.647608 51.257801,63.0655678 C53.2380524,58.4817286 60.8213613,50.0462412 61.6543455,40.3982312 Z" id="Path" fill="#FFCB01"></path>
                <path d="M53.9656754,44.3551206 C53.9656754,44.3551206 52.7670785,62.834397 34.0695079,70.2750402 C32.8402932,70.7679648 31.7182408,71.2069196 30.7015497,71.6008995 C31.2931937,69.638196 32.1198743,66.9486985 33.0609215,63.9632663 L48.944356,53.6820101 C48.944356,53.6820101 52.2970052,48.0376633 53.9656754,44.3551206 Z" id="Path" fill="#F0B701"></path>
                <path d="M48.942555,53.6811106 C48.942555,53.6811106 42.2984921,62.3576633 36.4540942,65.5625729 C24.6176126,72.0533467 14.8577382,72.842206 14.8577382,72.842206 C14.8577382,72.842206 2.51786387,76.1712462 0.870806283,71.4632764 C0.281863874,69.7812161 4.3459267,71.601799 9.69773822,70.699603 C11.4348482,70.352397 9.48881675,69.0337337 8.8638534,67.9921156 C8.23798953,66.9504975 9.90665969,66.5340302 12.3389738,68.2700603 C14.771288,70.005191 24.2934241,66.1175628 32.6331728,59.3839246 C40.8153298,52.7780151 42.4029529,47.6733668 42.4029529,47.6733668 L48.942555,53.6811106 Z" id="Path" fill="#F1B282"></path>
                <path d="M45.9474136,11.5117688 C45.9474136,11.5117688 42.3858429,11.2743015 42.3858429,7.74557286 C42.3858429,1.41131156 56.8347435,-3.15453769 62.5935916,4.54066332 C68.3524398,12.2358643 68.2146597,22.4829397 75.2360419,27.7881759 C82.2574241,33.0934121 74.4561885,46.5220101 67.0448796,46.717201 C59.6335707,46.912392 52.0277487,39.5419095 54.3682094,33.113201 C56.7086702,26.6844925 59.3093822,18.0475176 55.0832251,19.6063467 C50.8570681,21.1651759 52.6103874,11.2095377 45.9474136,11.5117688 Z" id="Path" fill="#0B224E"></path>
            </g>
        </g>
        <g id="man_laptop" transform="translate(138.455497, 21.000000)" fill-rule="nonzero">
            <path d="M21.004712,53.0415678 L37.6049634,71.2797789 C38.0615288,71.780799 38.0246073,72.5561658 37.5221152,73.0122111 L37.5221152,73.0122111 C37.0205236,73.4682563 36.2442723,73.4313769 35.7877068,72.9294573 L19.1874555,54.6912462 C18.7308901,54.1902261 18.7678115,53.4148593 19.2703037,52.9588141 L19.2703037,52.9588141 C19.7727958,52.5036683 20.5490471,52.5405477 21.004712,53.0415678 Z" id="Path" fill="#1277D7"></path>
            <polygon id="Path" fill="#F1B282" points="61.8452565 114.548307 65.6967958 119.909312 59.6371728 125.535668 55.6037277 119.317442"></polygon>
            <polygon id="Path" fill="#F1B282" points="24.3510576 116.877106 18.6642513 123.705191 12.7189948 119.05209 18.9992461 112.915719"></polygon>
            <path d="M47.2360628,88.9297186 L24.6239162,118.074337 L18.3949948,112.740317 C18.3949948,112.740317 34.0028691,81.3028794 38.2776545,76.8629598 C42.5524398,72.4230402 47.7484607,81.4144171 47.2360628,88.9297186 Z" id="Path" fill="#0B224E"></path>
            <path d="M88.4440209,79.6100251 C86.5709319,73.6760402 66.0362932,71.2060201 66.0362932,71.2060201 C62.5026387,70.9883417 35.1438325,70.3991709 34.6881675,81.3298643 C34.2946387,90.7727889 55.8081466,119.98307 55.8081466,119.98307 L62.014555,116.203382 C62.014555,116.203382 56.8815707,97.6017739 50.9615288,87.8242362 C55.6442513,88.8424673 64.135288,90.1350452 77.035288,90.1125578 C92.0515183,90.0873719 88.4440209,79.6100251 88.4440209,79.6100251 Z" id="Path" fill="#102B5E"></path>
            <path d="M91.4571728,78.3696181 C86.2044188,60.8312161 92.326178,58.7452814 89.7047539,42.9195226 C87.0815288,27.0919648 75.8132775,26.9777286 75.8132775,26.9777286 C65.683288,30.9643015 62.9222827,39.2891508 62.475623,43.2415427 C62.0604817,46.9222864 63.3239162,52.8436784 63.3239162,56.6557487 C63.3239162,68.007407 61.2473089,71.2078191 67.3186387,73.4808492 C67.766199,73.6481558 76.8533822,75.0918492 81.1551832,79.0145578 C86.3980314,83.7962864 93.509466,85.2210905 91.4571728,78.3696181 Z" id="Path" fill="#1B90FB"></path>
            <path d="M83.0138639,61.2800653 C80.1186806,64.2295176 69.0818639,69.5536432 63.3977592,71.2069196 C63.3581361,71.1385578 63.3221152,71.066598 63.2869948,70.9955377 C62.3378429,69.0571206 62.3450471,66.1265578 62.6872461,62.6877789 C62.7691937,61.8683367 63.0141361,59.5467337 63.3248168,56.6548492 C73.9095707,53.2205678 81.357801,41.7798593 86.2053194,42.0380151 C86.2044188,42.0380151 88.5980105,55.5871457 83.0138639,61.2800653 Z" id="Path" fill="#1277D7"></path>
            <path d="M61.2482094,73.6589497 L36.5711623,73.6589497 C35.8930681,73.6589497 35.3437487,73.1102563 35.3437487,72.4329347 L35.3437487,72.4329347 C35.3437487,71.7556131 35.8930681,71.2069196 36.5711623,71.2069196 L61.2482094,71.2069196 C61.9263037,71.2069196 62.475623,71.7556131 62.475623,72.4329347 L62.475623,72.4329347 C62.475623,73.1102563 61.9263037,73.6589497 61.2482094,73.6589497 Z" id="Path" fill="#1B90FB"></path>
            <path d="M54.3682094,64.6495829 C54.3682094,64.6495829 49.0677277,63.7105075 46.075288,65.7595628 C43.0828482,67.8095176 41.2872042,71.1979246 43.0828482,71.3391457 C44.8784921,71.4812663 45.4764398,71.795191 47.528733,71.3391457 C49.5810262,70.8831005 48.0420314,69.3458593 51.6324188,69.260407 C55.2228063,69.1749548 56.1638534,66.8695427 56.1638534,66.8695427 C56.1638534,66.8695427 56.072,64.8312814 54.3682094,64.6495829 Z" id="Path" fill="#F1B282"></path>
            <path d="M75.1477906,41.2932312 C74.9460733,45.6243116 76.1932984,49.6738492 69.431267,55.0591407 C63.1510157,60.0603467 53.1606073,63.5279095 53.1606073,63.5279095 L56.4817382,69.2631055 C56.4817382,69.2631055 78.5688796,62.472799 81.5325026,59.0565075 C84.4961257,55.6402161 86.1936126,46.0938492 86.2063134,42.8880402 C86.2422408,33.4685025 75.8556021,26.0692362 75.1477906,41.2932312 Z" id="Path" fill="#1B90FB"></path>
            <path d="M53.7747644,13.4115075 C53.4757906,16.3375729 54.8878115,17.198392 55.0291937,18.3074724 C55.1705759,19.4165528 54.7824503,21.9684271 55.2147016,22.8913116 C55.6478534,23.814196 57.1166073,23.284392 58.0639581,24.3134171 C59.0113089,25.3424422 59.0572356,27.2358844 60.7835393,27.9725729 C62.5098429,28.7092613 66.180377,26.6368191 66.8458639,27.8214573 C69.0539476,31.7504623 68.1885445,36.4791206 69.0539476,37.0889799 C69.6554974,37.5135427 79.5144293,29.3191206 77.8844817,27.3357286 C75.812377,24.8135377 74.5165236,23.4534975 73.9140733,20.4140955 C73.3107225,17.3746935 69.852712,6.78940704 65.7211099,7.23375879 C61.5895079,7.67721106 54.0926492,10.3046432 53.7747644,13.4115075 Z" id="Path" fill="#F1B282"></path>
            <path d="M77.1469529,10.2614673 C78.2356859,18.3083719 76.2824503,22.1618191 74.5948691,22.6475477 C72.4372147,23.2691005 67.8994764,14.6006432 65.8769005,15.3877035 C64.4630785,15.938196 63.0528586,18.4289045 61.882178,17.8352362 C60.8889005,17.3315176 61.3805864,13.604 58.6132775,14.6806985 C52.8652356,16.9177487 51.0506806,14.7814422 49.9700524,12.0118894 C49.2037068,8.60009548 52.0538639,5.34571357 56.436712,3.01961307 C60.1450681,1.05061307 64.5369215,-1.15315578 67.6203141,3.37131658 C67.6203141,3.37131658 75.7394346,-0.143919598 77.1469529,10.2614673 Z" id="Path" fill="#0B224E"></path>
            <path d="M68.0084398,30.8923417 C67.7643979,29.8678141 67.4059895,28.8181005 66.8440628,27.8178593 C66.3721885,26.9804271 64.384733,27.7854774 62.6584293,28.0454322 C63.3185131,27.9231005 66.909801,27.2322864 68.5136335,26.0935223 C68.512733,26.0926231 69.563644,28.2397236 68.0084398,30.8923417 Z" id="Path" fill="#CD916A"></path>
            <path d="M16.2211309,112.48306 C15.7312461,114.426874 17.8780942,115.414523 18.9722304,116.463337 C20.0663665,117.512151 24.0754974,120.863678 24.9832251,119.765392 C25.8909529,118.667106 25.8198115,117.40691 26.4744921,116.542492 C27.1291728,115.677176 28.8653822,115.140176 28.2773403,113.817015 C27.6883979,112.493854 25.5919791,112.078286 24.3384503,111.343397 C23.4226178,110.805497 20.9849005,107.319045 20.2257592,107.634769 C19.4666178,107.950492 19.3369424,109.383392 18.7561047,110.000447 C17.8943037,110.917035 16.6011518,110.973704 16.2211309,112.48306 Z" id="Path" fill="#355AA2"></path>
            <path d="M64.3243979,115.546749 C64.5036021,117.542734 62.2288796,118.183176 60.9834555,119.048492 C59.7380314,119.913809 55.2534241,122.59701 54.5294031,121.370995 C53.8053822,120.14498 54.0728377,118.910869 53.5613403,117.954704 C53.0498429,116.997638 51.4189948,116.196186 52.2078534,114.980965 C52.996712,113.765744 55.1327539,113.68299 56.4853403,113.153186 C57.4741152,112.765503 60.428733,109.702714 61.1284398,110.132673 C61.8281466,110.563533 61.7326911,111.998231 62.2090681,112.69894 C62.9168796,113.738759 64.1857173,113.997814 64.3243979,115.546749 Z" id="Path" fill="#355AA2"></path>
            <path d="M64.6710995,118.695889 C65.2690471,118.14 66.7179895,118.496201 68.5478534,120.68108 C70.3777173,122.86596 72.2580105,124.354628 70.4173403,126.086161 C69.2610681,127.173653 61.9425131,130.737462 57.2985131,134.266191 C55.6208377,135.540779 52.9958115,135.970739 50.8696754,135.57406 C50.435623,135.493106 50.0826178,135.175583 49.9718534,134.767211 C49.861089,134.358839 50.0150785,133.936975 50.3617801,133.69501 C54.2259267,130.996518 54.5528168,131.251075 56.0810052,127.202437 C56.6357277,125.732658 57.0427644,124.44098 57.6019895,123.97594 C58.6889215,123.071045 60.0406073,123.650322 61.7615079,122.118477 C63.4824084,120.586633 63.6363979,119.656553 64.6710995,118.695889 Z" id="Path" fill="#0B224E"></path>
            <path d="M21.5828482,120.844789 C22.3491937,121.127231 22.6868901,122.57902 21.5612356,125.196558 C20.4364817,127.814095 19.9565026,130.161784 17.5782199,129.304563 C16.0842513,128.765764 9.59507853,123.854508 4.3459267,121.310729 C2.44942408,120.391442 0.878910995,118.24704 0.272858639,116.172799 C0.149486911,115.749136 0.272858639,115.291291 0.588041885,115.008849 C0.903225131,114.726407 1.34898429,114.672437 1.72180105,114.872126 C5.8786178,117.096583 5.7984712,117.502256 10.1047749,117.035417 C11.6680838,116.866312 13.0062618,116.645035 13.6744503,116.932874 C14.9739058,117.493261 15.0666597,118.958543 17.2135079,119.800472 C19.3594555,120.640603 20.2572775,120.356362 21.5828482,120.844789 Z" id="Path" fill="#0B224E"></path>
        </g>
    </g>
</svg>