<?xml version="1.0" standalone="no"?><!DOCTYPE svg PUBLIC "-//W3C//DTD SVG 1.1//EN" "http://www.w3.org/Graphics/SVG/1.1/DTD/svg11.dtd"><svg t="1636792602064" class="icon" viewBox="0 0 1024 1024" version="1.1" xmlns="http://www.w3.org/2000/svg" p-id="5943" width="128" height="128" xmlns:xlink="http://www.w3.org/1999/xlink"><defs><style type="text/css"></style></defs><path d="M967.736264 416.351648H450.10989v0.011253A45.010989 45.010989 0 0 0 405.098901 461.362637l-0.045011 112.527473a45.010989 45.010989 0 0 0 45.010989 45.022242L765.186813 618.901099a45.010989 45.010989 0 0 1 45.010989 45.010989v22.505494c0 74.571956-60.461011 135.032967-135.032967 135.032967H247.526681a45.010989 45.010989 0 0 1-45.010989-45.010989V348.835165h-0.011252c0-74.571956 60.449758-135.032967 135.032967-135.032967h630.075077v-0.022506a45.010989 45.010989 0 0 0 45.010989-44.988483l0.101274-112.527473H1012.747253a45.010989 45.010989 0 0 0-45.010989-45.033494L337.582418 11.252747C151.146901 11.252747 0 162.399648 0 348.835165v630.153846a45.010989 45.010989 0 0 0 45.010989 45.010989h663.912088c167.800967 0 303.824176-136.023209 303.824176-303.824176V461.362637a45.010989 45.010989 0 0 0-45.010989-45.010989z" fill="#ffffff" p-id="5944"></path></svg>